<svg xmlns="http://www.w3.org/2000/svg" viewBox="0 0 1280 720">
  <defs>
    <linearGradient id="bg" x1="0" y1="0" x2="0.8" y2="1">
      <stop offset="0%" stop-color="#020617" />
      <stop offset="100%" stop-color="#111827" />
    </linearGradient>
    <linearGradient id="chip" x1="0" y1="0" x2="1" y2="1">
      <stop offset="0%" stop-color="#0ea5e9" />
      <stop offset="100%" stop-color="#22d3ee" />
    </linearGradient>
  </defs>
  <rect width="1280" height="720" rx="28" fill="url(#bg)" />
  <g opacity="0.16" stroke="#38bdf8">
    <circle cx="200" cy="160" r="18" />
    <circle cx="260" cy="220" r="18" />
    <circle cx="320" cy="160" r="18" />
    <circle cx="380" cy="220" r="18" />
    <circle cx="440" cy="160" r="18" />
    <circle cx="500" cy="220" r="18" />
    <circle cx="560" cy="160" r="18" />
    <circle cx="620" cy="220" r="18" />
    <circle cx="680" cy="160" r="18" />
  </g>
  <g transform="translate(920 80)" opacity="0.3">
    <circle cx="80" cy="80" r="70" fill="url(#chip)" />
    <circle cx="200" cy="150" r="40" fill="url(#chip)" />
    <circle cx="110" cy="210" r="30" fill="url(#chip)" />
  </g>
  <text x="80" y="160" fill="#22d3ee" font-family="'Orbitron', sans-serif" font-size="58" font-weight="700">Plinko Live Board</text>
  <text x="80" y="220" fill="#94a3b8" font-family="'Inter', sans-serif" font-size="28">Fichas caindo em tempo real com ranking por interação</text>
  <rect x="80" y="260" width="520" height="24" rx="12" fill="#1f2937" />
  <rect x="80" y="260" width="340" height="24" rx="12" fill="url(#chip)" />
  <text x="80" y="330" fill="#f8fafc" font-family="'Inter', sans-serif" font-size="34" font-weight="700">@creator_top</text>
  <text x="80" y="380" fill="#cbd5f5" font-family="'Inter', sans-serif" font-size="28">1º lugar - 42.500 pts</text>
  <text x="80" y="470" fill="#22d3ee" font-family="'Inter', sans-serif" font-size="26" letter-spacing="0.3em">SOON</text>
  <text x="80" y="520" fill="#94a3b8" font-family="'Inter', sans-serif" font-size="26">Configurações avançadas para campanhas patrocinadas</text>
</svg>
